<?xml version="1.0" encoding="UTF-8" standalone="no"?>
<!-- Created with Inkscape (http://www.inkscape.org/) -->
<svg xmlns:dc="http://purl.org/dc/elements/1.1/" xmlns:cc="http://creativecommons.org/ns#" xmlns:rdf="http://www.w3.org/1999/02/22-rdf-syntax-ns#" xmlns:svg="http://www.w3.org/2000/svg" xmlns="http://www.w3.org/2000/svg" xmlns:sodipodi="http://sodipodi.sourceforge.net/DTD/sodipodi-0.dtd" xmlns:inkscape="http://www.inkscape.org/namespaces/inkscape" width="500" height="500" id="svg2" version="1.1" inkscape:version="0.48.1 r9760" sodipodi:docname="New document 1">
  <defs id="defs4"/>
  <sodipodi:namedview id="base" pagecolor="#ffffff" bordercolor="#666666" borderopacity="1.0" inkscape:pageopacity="0.0" inkscape:pageshadow="2" inkscape:zoom="0.5" inkscape:cx="715.29456" inkscape:cy="-8.4339601" inkscape:document-units="px" inkscape:current-layer="layer1" showgrid="false" showguides="true" inkscape:guide-bbox="true" inkscape:window-width="1366" inkscape:window-height="711" inkscape:window-x="0" inkscape:window-y="26" inkscape:window-maximized="1"/>
  <metadata id="metadata7">
    <rdf:RDF>
      <cc:Work rdf:about="">
        <dc:format>image/svg+xml</dc:format>
        <dc:type rdf:resource="http://purl.org/dc/dcmitype/StillImage"/>
        <dc:title/>
      </cc:Work>
    </rdf:RDF>
  </metadata>
  <g inkscape:label="Layer 1" inkscape:groupmode="layer" id="layer1" transform="translate(0, -552.362)">
    <path style="font-size:medium;font-style:normal;font-variant:normal;font-weight:normal;font-stretch:normal;text-indent:0;text-align:start;text-decoration:none;line-height:normal;letter-spacing:normal;word-spacing:normal;text-transform:none;direction:ltr;block-progression:tb;writing-mode:lr-tb;text-anchor:start;baseline-shift:baseline;color:#000000;fill:#000000;fill-opacity:1;stroke:none;stroke-width:24.15630341;marker:none;visibility:visible;display:inline;overflow:visible;enable-background:accumulate;font-family:Sans;-inkscape-font-specification:Sans" d="m 66.554026,728.81005 a 10.964143,10.964143 0 0 0 -10.977231,10.94882 l 0,117.91275 a 10.964143,10.964143 0 1 0 21.926043,0 l 0,-106.93553 53.467782,0 0,107.07737 a 10.964143,10.964143 0 0 0 10.94885,10.94886 l 111.78598,0.14201 a 10.964143,10.964143 0 0 0 10.26804,-6.72246 10.964143,10.964143 0 0 0 0.0567,-0.11338 10.964143,10.964143 0 0 0 0.0299,-0.0849 10.964143,10.964143 0 0 0 0.99271,-4.73694 l -0.28359,-37.01616 24.59237,0 a 10.964143,10.964143 0 1 0 0,-21.92604 l -24.76256,0 -0.36887,-47.56788 50.63131,0 0,106.96388 a 10.964143,10.964143 0 0 0 10.94881,10.97723 l 110.42447,0 a 10.964143,10.964143 0 1 0 0,-21.92604 l -15.79925,0 0,-39.00172 a 10.964143,10.964143 0 0 0 -10.94881,-10.94881 l -49.15634,0 a 10.964143,10.964143 0 0 0 -10.94887,10.94881 l 0,39.00172 -12.59397,0 0,-106.9923 a 10.964143,10.964143 0 0 0 -10.97721,-10.94881 l -72.64243,0 a 10.964143,10.964143 0 0 0 -10.94882,11.03388 l 0.82256,107.10578 -8.96331,0 0,-38.63296 A 10.964143,10.964143 0 0 0 223.10112,797.3684 l -49.12798,0 a 10.964143,10.964143 0 0 0 -10.97719,10.94883 l 0,38.51949 -10.09789,0 0,-107.07738 a 10.964143,10.964143 0 0 0 -10.97723,-10.94881 l -75.365458,0 z m 304.752154,89.91662 27.20193,0 0,27.20194 -27.20193,0 0,-27.20194 z m -186.38556,0.56731 27.23027,0 0,27.20191 -27.23027,0 0,-27.20191 z" id="path3781-0-0-3-0" inkscape:connector-curvature="0"/>
  </g>
</svg>